<svg width="20" height="20" viewBox="0 0 20 20" fill="none" xmlns="http://www.w3.org/2000/svg">
<path d="M6.17 0.76C7.38508 0.259948 8.68606 0.00179152 10 0C11.31 0 12.61 0.26 13.83 0.76C15.04 1.26 16.14 2 17.07 2.93C18 3.86 18.74 4.96 19.24 6.17C19.74 7.39 20 8.69 20 10C20 12.65 18.95 15.2 17.07 17.07C16.1425 17.9998 15.0405 18.7373 13.8272 19.2401C12.6139 19.7429 11.3133 20.0011 10 20C8.68606 19.9982 7.38508 19.7401 6.17 19.24C4.95776 18.7369 3.85672 17.9994 2.93 17.07C2.0002 16.1425 1.26273 15.0405 0.759921 13.8272C0.257113 12.6139 -0.00113404 11.3133 3.74331e-06 10C3.74331e-06 7.35 1.05 4.8 2.93 2.93C3.86 2 4.96 1.26 6.17 0.76ZM8 14H9V12H8C7.67 12 6 11.9 6 10C6 8.17 7.54 8 8 8H9V6H8C6.39 6 4 7.07 4 10C4 12.94 6.39 14 8 14ZM11 14H12C13.61 14 16 12.94 16 10C16 7.07 13.61 6 12 6H11V8H12C12.33 8 14 8.1 14 10C14 11.83 12.46 12 12 12H11V14ZM7 11H13V9H7V11Z" fill="#545454"/>
</svg>
