<svg width="17" height="17" viewBox="0 0 17 17" fill="none" xmlns="http://www.w3.org/2000/svg">
<path d="M0.707142 7.07001C0.519596 7.07001 0.339732 6.99551 0.207117 6.86289C0.0745024 6.73028 0 6.55041 0 6.36287V0.707142C0 0.519596 0.0745024 0.339732 0.207117 0.207117C0.339732 0.0745024 0.519596 0 0.707142 0H6.36428C6.55183 0 6.73169 0.0745024 6.86431 0.207117C6.99692 0.339732 7.07142 0.519596 7.07142 0.707142V6.36287C7.07142 6.55041 6.99692 6.73028 6.86431 6.86289C6.73169 6.99551 6.55183 7.07001 6.36428 7.07001H0.707142ZM10.6071 7.07001C10.4196 7.07001 10.2397 6.99551 10.1071 6.86289C9.97449 6.73028 9.89999 6.55041 9.89999 6.36287V0.707142C9.89999 0.519596 9.97449 0.339732 10.1071 0.207117C10.2397 0.0745024 10.4196 0 10.6071 0H16.2629C16.4504 0 16.6303 0.0745024 16.7629 0.207117C16.8955 0.339732 16.97 0.519596 16.97 0.707142V6.36287C16.97 6.55041 16.8955 6.73028 16.7629 6.86289C16.6303 6.99551 16.4504 7.07001 16.2629 7.07001H10.6071ZM0.707142 16.97C0.519596 16.97 0.339732 16.8955 0.207117 16.7629C0.0745024 16.6303 0 16.4504 0 16.2629V10.6057C0 10.4182 0.0745024 10.2383 0.207117 10.1057C0.339732 9.97308 0.519596 9.89858 0.707142 9.89858H6.36428C6.55183 9.89858 6.73169 9.97308 6.86431 10.1057C6.99692 10.2383 7.07142 10.4182 7.07142 10.6057V16.2629C7.07142 16.4504 6.99692 16.6303 6.86431 16.7629C6.73169 16.8955 6.55183 16.97 6.36428 16.97H0.707142ZM10.6071 16.97C10.4196 16.97 10.2397 16.8955 10.1071 16.7629C9.97449 16.6303 9.89999 16.4504 9.89999 16.2629V10.6057C9.89999 10.4182 9.97449 10.2383 10.1071 10.1057C10.2397 9.97308 10.4196 9.89858 10.6071 9.89858H16.2629C16.4504 9.89858 16.6303 9.97308 16.7629 10.1057C16.8955 10.2383 16.97 10.4182 16.97 10.6057V16.2629C16.97 16.4504 16.8955 16.6303 16.7629 16.7629C16.6303 16.8955 16.4504 16.97 16.2629 16.97H10.6071Z" fill="#545454"/>
</svg>
