<svg width="12" height="17" viewBox="0 0 12 17" fill="none" xmlns="http://www.w3.org/2000/svg">
<path fill-rule="evenodd" clip-rule="evenodd" d="M0.999787 10C0.802037 10 0.608738 10.0587 0.444329 10.1686C0.279919 10.2785 0.151779 10.4346 0.0761092 10.6173C0.000439122 10.8 -0.0193641 11.0011 0.0192034 11.195C0.057771 11.389 0.152978 11.5671 0.292787 11.707L5.29279 16.707C5.48031 16.8945 5.73462 16.9998 5.99979 16.9998C6.26495 16.9998 6.51926 16.8945 6.70679 16.707L11.7068 11.707C11.8466 11.5671 11.9418 11.389 11.9804 11.195C12.0189 11.0011 11.9991 10.8 11.9235 10.6173C11.8478 10.4346 11.7197 10.2785 11.5552 10.1686C11.3908 10.0587 11.1975 10 10.9998 10H0.999787Z" fill="#545454"/>
<path fill-rule="evenodd" clip-rule="evenodd" d="M10.9997 6.99976C11.1975 6.99971 11.3908 6.94104 11.5552 6.83116C11.7196 6.72127 11.8477 6.56511 11.9234 6.38241C11.9991 6.19971 12.0189 5.99868 11.9803 5.80472C11.9417 5.61077 11.8465 5.43261 11.7067 5.29276L6.70673 0.292756C6.5192 0.105285 6.26489 -3.10189e-05 5.99973 -3.10421e-05C5.73456 -3.10653e-05 5.48025 0.105284 5.29273 0.292755L0.292724 5.29276C0.152914 5.43261 0.0577089 5.61077 0.0191413 5.80472C-0.0194263 5.99868 0.000376972 6.19971 0.076047 6.38241C0.151717 6.56511 0.279856 6.72127 0.444266 6.83116C0.608676 6.94104 0.801974 6.99971 0.999724 6.99975L10.9997 6.99976Z" fill="#545454"/>
</svg>
